<svg width="11" height="12" viewBox="0 0 11 12" fill="none" xmlns="http://www.w3.org/2000/svg">
<path d="M1.16667 11.6667C0.845833 11.6667 0.571181 11.5525 0.342708 11.324C0.114236 11.0956 0 10.8209 0 10.5001V2.33342C0 2.01258 0.114236 1.73793 0.342708 1.50946C0.571181 1.28098 0.845833 1.16675 1.16667 1.16675H1.75V8.10623e-05H2.91667V1.16675H7.58333V8.10623e-05H8.75V1.16675H9.33333C9.65417 1.16675 9.92882 1.28098 10.1573 1.50946C10.3858 1.73793 10.5 2.01258 10.5 2.33342V10.5001C10.5 10.8209 10.3858 11.0956 10.1573 11.324C9.92882 11.5525 9.65417 11.6667 9.33333 11.6667H1.16667ZM1.16667 10.5001H9.33333V4.66675H1.16667V10.5001ZM1.16667 3.50008H9.33333V2.33342H1.16667V3.50008Z" fill="#6B7280"/>
</svg>
