<svg width="24" height="29" viewBox="0 0 24 29" fill="none" xmlns="http://www.w3.org/2000/svg">
<path d="M8.6 25L6.7 21.8L3.1 21L3.45 17.3L1 14.5L3.45 11.7L3.1 8L6.7 7.2L8.6 4L12 5.45L15.4 4L17.3 7.2L20.9 8L20.55 11.7L23 14.5L20.55 17.3L20.9 21L17.3 21.8L15.4 25L12 23.55L8.6 25ZM9.45 22.45L12 21.35L14.6 22.45L16 20.05L18.75 19.4L18.5 16.6L20.35 14.5L18.5 12.35L18.75 9.55L16 8.95L14.55 6.55L12 7.65L9.4 6.55L8 8.95L5.25 9.55L5.5 12.35L3.65 14.5L5.5 16.6L5.25 19.45L8 20.05L9.45 22.45ZM10.95 18.05L16.6 12.4L15.2 10.95L10.95 15.2L8.8 13.1L7.4 14.5L10.95 18.05Z" fill="#C82E39"/>
</svg>
