<svg width="332" height="309" viewBox="0 0 332 309" fill="none" xmlns="http://www.w3.org/2000/svg">
<g filter="url(#filter0_d_2_1375)">
<rect x="38" y="13" width="256" height="256" rx="128" fill="url(#paint0_linear_2_1375)"/>
<g opacity="0.2">
<g clip-path="url(#clip0_2_1375)">
<path d="M166.769 183.221C164.155 182.898 161.465 182.46 158.689 181.965C147.356 179.942 136.057 176.801 125.13 172.629C123.789 172.107 123.002 170.693 123.256 169.269L124.086 164.615C126.873 149.001 141.86 138.566 157.493 141.356C162.961 142.339 168.389 143.307 173.859 144.277C180.711 145.5 186.864 149.165 191.181 154.599C192.681 156.484 195.414 156.79 197.292 155.301C199.172 153.807 199.487 151.077 197.993 149.197C194.892 145.296 191.049 142.123 186.747 139.764C196.034 135.135 203.113 126.368 205.071 115.399C208.358 96.9821 196.034 79.3175 177.596 76.0267C159.158 72.736 141.484 85.0469 138.198 103.463C136.241 114.425 139.844 125.092 146.946 132.646C131.453 134.948 118.422 146.851 115.525 163.087L114.694 167.74C113.712 173.244 116.776 178.703 122.003 180.732C133.464 185.109 145.292 188.403 157.161 190.521C160.095 191.045 162.94 191.5 165.706 191.841C168.09 192.137 170.259 190.446 170.555 188.062C170.846 185.681 169.082 183.49 166.769 183.221ZM146.759 104.991C149.205 91.2892 162.353 82.1352 176.069 84.5831C189.785 87.0311 198.954 100.168 196.509 113.87C194.063 127.573 181.006 136.645 167.341 134.285L167.065 134.236C153.427 131.723 144.323 118.642 146.759 104.991Z" fill="white"/>
<path d="M208.657 139.26C206.703 139.635 205.256 141.287 205.141 143.273C205.025 145.253 206.271 147.065 208.168 147.667C213.304 149.292 218.006 153.286 221.069 158.626C221.735 159.784 222.856 160.525 224.08 160.744C225.049 160.916 226.083 160.761 227.004 160.236C229.089 159.042 229.809 156.389 228.614 154.304C226.291 150.26 223.226 146.768 219.709 144.086C226.255 139.988 230.999 133.241 232.398 125.404C234.413 114.115 229.396 102.93 219.618 96.9092C217.576 95.6446 214.896 96.2817 213.634 98.3264C212.376 100.366 213.012 103.046 215.058 104.302C221.773 108.441 225.22 116.122 223.836 123.876C222.452 131.63 216.357 137.777 208.656 139.261L208.657 139.26Z" fill="white"/>
<path d="M104.268 159.038L102.607 158.435C101.702 158.106 100.819 157.79 99.9598 157.45C99.3211 157.202 98.9335 156.486 99.0586 155.785L99.712 152.125C101.618 141.443 113.259 132.168 124.132 132.668C126.12 132.759 127.914 131.489 128.49 129.591C129.069 127.688 128.282 125.637 126.579 124.611C119.866 120.555 116.281 112.642 117.658 104.925C119.036 97.2078 124.933 91.1555 132.665 89.5955C135.019 89.1248 136.543 86.8304 136.069 84.4813C135.592 82.127 133.297 80.6019 130.945 81.0817C119.687 83.3481 111.111 92.1069 109.096 103.396C107.7 111.219 109.81 119.18 114.52 125.287C103.021 128.786 93.2555 138.797 91.1496 150.596L90.4962 154.257C89.6424 159.041 92.2965 163.791 96.7882 165.535C97.7059 165.9 98.6647 166.248 99.6538 166.602L101.247 167.183C101.494 167.275 101.745 167.344 101.999 167.389C104.031 167.752 106.093 166.621 106.835 164.623C107.671 162.373 106.521 159.87 104.268 159.037L104.268 159.038Z" fill="white"/>
<path d="M225.573 174.134C217.461 162.517 201.401 159.65 189.77 167.744C184.135 171.665 180.369 177.547 179.164 184.298C177.959 191.05 179.456 197.877 183.385 203.504C187.315 209.132 193.206 212.899 199.967 214.105C206.728 215.312 213.558 213.816 219.19 209.895C224.825 205.974 228.591 200.091 229.797 193.335C231.002 186.579 229.504 179.762 225.573 174.134L225.573 174.134ZM214.215 202.763C206.759 207.963 195.721 205.993 190.523 198.535L190.52 198.534C185.153 190.844 187.047 180.232 194.743 174.874C198.593 172.196 203.175 171.328 207.465 172.093C211.755 172.859 215.756 175.258 218.44 179.103C223.807 186.793 221.913 197.405 214.215 202.763L214.215 202.763Z" fill="white"/>
<path d="M212.444 185.829L209.524 185.307L210.044 182.393C210.466 180.031 208.892 177.773 206.527 177.351C204.163 176.929 201.905 178.504 201.483 180.865L200.963 183.779L198.043 183.258C195.678 182.836 193.42 184.411 192.999 186.772C192.578 189.134 194.152 191.392 196.516 191.814L199.436 192.335L198.916 195.249C198.494 197.611 200.069 199.869 202.433 200.291C204.797 200.713 207.056 199.139 207.477 196.777L207.997 193.863L210.917 194.384C213.282 194.806 215.54 193.232 215.961 190.87C216.383 188.509 214.808 186.25 212.444 185.829Z" fill="white"/>
</g>
</g>
</g>
<defs>
<filter id="filter0_d_2_1375" x="0" y="0" width="332" height="332" filterUnits="userSpaceOnUse" color-interpolation-filters="sRGB">
<feFlood flood-opacity="0" result="BackgroundImageFix"/>
<feColorMatrix in="SourceAlpha" type="matrix" values="0 0 0 0 0 0 0 0 0 0 0 0 0 0 0 0 0 0 127 0" result="hardAlpha"/>
<feMorphology radius="12" operator="erode" in="SourceAlpha" result="effect1_dropShadow_2_1375"/>
<feOffset dy="25"/>
<feGaussianBlur stdDeviation="25"/>
<feComposite in2="hardAlpha" operator="out"/>
<feColorMatrix type="matrix" values="0 0 0 0 0 0 0 0 0 0 0 0 0 0 0 0 0 0 0.25 0"/>
<feBlend mode="normal" in2="BackgroundImageFix" result="effect1_dropShadow_2_1375"/>
<feBlend mode="normal" in="SourceGraphic" in2="effect1_dropShadow_2_1375" result="shape"/>
</filter>
<linearGradient id="paint0_linear_2_1375" x1="38" y1="269" x2="294" y2="13" gradientUnits="userSpaceOnUse">
<stop stop-color="#2B458F"/>
<stop offset="1" stop-color="#C82E39"/>
</linearGradient>
<clipPath id="clip0_2_1375">
<rect width="144" height="132" fill="white" transform="translate(106.716 63.3765) rotate(10.1193)"/>
</clipPath>
</defs>
</svg>
