<svg width="14" height="17" viewBox="0 0 14 17" fill="none" xmlns="http://www.w3.org/2000/svg">
<path d="M5.5415 11.1249L9.62484 8.49992L5.5415 5.87492V11.1249ZM6.99984 14.3333C6.19289 14.3333 5.43456 14.1801 4.72484 13.8739C4.01512 13.5676 3.39775 13.152 2.87275 12.627C2.34775 12.102 1.93213 11.4846 1.62588 10.7749C1.31963 10.0652 1.1665 9.30686 1.1665 8.49992C1.1665 7.69297 1.31963 6.93464 1.62588 6.22492C1.93213 5.5152 2.34775 4.89783 2.87275 4.37284C3.39775 3.84784 4.01512 3.43221 4.72484 3.12596C5.43456 2.81971 6.19289 2.66658 6.99984 2.66658C7.80678 2.66658 8.56511 2.81971 9.27484 3.12596C9.98456 3.43221 10.6019 3.84784 11.1269 4.37284C11.6519 4.89783 12.0675 5.5152 12.3738 6.22492C12.68 6.93464 12.8332 7.69297 12.8332 8.49992C12.8332 9.30686 12.68 10.0652 12.3738 10.7749C12.0675 11.4846 11.6519 12.102 11.1269 12.627C10.6019 13.152 9.98456 13.5676 9.27484 13.8739C8.56511 14.1801 7.80678 14.3333 6.99984 14.3333ZM6.99984 13.1666C8.30262 13.1666 9.40609 12.7145 10.3103 11.8103C11.2144 10.9062 11.6665 9.8027 11.6665 8.49992C11.6665 7.19714 11.2144 6.09367 10.3103 5.1895C9.40609 4.28534 8.30262 3.83325 6.99984 3.83325C5.69706 3.83325 4.59359 4.28534 3.68942 5.1895C2.78525 6.09367 2.33317 7.19714 2.33317 8.49992C2.33317 9.8027 2.78525 10.9062 3.68942 11.8103C4.59359 12.7145 5.69706 13.1666 6.99984 13.1666Z" fill="#2B458F"/>
</svg>
